<mxfile host="app.diagrams.net" agent="Mozilla/5.0 (Windows NT 10.0; Win64; x64) AppleWebKit/537.36 (KHTML, like Gecko) Chrome/137.0.0.0 Safari/537.36" version="27.0.5">
  <diagram name="Page-1" id="pnlApUwpI4fi2eD6DcaJ">
    <mxGraphModel dx="1426" dy="811" grid="1" gridSize="10" guides="1" tooltips="1" connect="1" arrows="1" fold="1" page="1" pageScale="1" pageWidth="850" pageHeight="1100" math="0" shadow="0">
      <root>
        <mxCell id="0" />
        <mxCell id="1" parent="0" />
        <mxCell id="Vkb-ADv6mb_PWdv9quP0-3" style="edgeStyle=orthogonalEdgeStyle;rounded=0;orthogonalLoop=1;jettySize=auto;html=1;exitX=0.5;exitY=1;exitDx=0;exitDy=0;exitPerimeter=0;entryX=0.5;entryY=0;entryDx=0;entryDy=0;" edge="1" parent="1" source="Vkb-ADv6mb_PWdv9quP0-1" target="Vkb-ADv6mb_PWdv9quP0-2">
          <mxGeometry relative="1" as="geometry" />
        </mxCell>
        <mxCell id="Vkb-ADv6mb_PWdv9quP0-1" value="&lt;b&gt;Start&lt;/b&gt;" style="strokeWidth=2;html=1;shape=mxgraph.flowchart.start_1;whiteSpace=wrap;" vertex="1" parent="1">
          <mxGeometry x="375" y="10" width="100" height="40" as="geometry" />
        </mxCell>
        <mxCell id="Vkb-ADv6mb_PWdv9quP0-5" value="" style="edgeStyle=orthogonalEdgeStyle;rounded=0;orthogonalLoop=1;jettySize=auto;html=1;" edge="1" parent="1" source="Vkb-ADv6mb_PWdv9quP0-2" target="Vkb-ADv6mb_PWdv9quP0-4">
          <mxGeometry relative="1" as="geometry" />
        </mxCell>
        <mxCell id="Vkb-ADv6mb_PWdv9quP0-2" value="&lt;b&gt;Get user number&lt;/b&gt;" style="shape=parallelogram;html=1;strokeWidth=2;perimeter=parallelogramPerimeter;whiteSpace=wrap;rounded=1;arcSize=12;size=0.23;" vertex="1" parent="1">
          <mxGeometry x="350" y="70" width="150" height="30" as="geometry" />
        </mxCell>
        <mxCell id="Vkb-ADv6mb_PWdv9quP0-20" style="edgeStyle=orthogonalEdgeStyle;rounded=0;orthogonalLoop=1;jettySize=auto;html=1;exitX=0.5;exitY=1;exitDx=0;exitDy=0;entryX=0.5;entryY=0;entryDx=0;entryDy=0;" edge="1" parent="1" source="Vkb-ADv6mb_PWdv9quP0-4" target="Vkb-ADv6mb_PWdv9quP0-19">
          <mxGeometry relative="1" as="geometry" />
        </mxCell>
        <mxCell id="Vkb-ADv6mb_PWdv9quP0-4" value="&lt;b&gt;counter = 0&lt;/b&gt;" style="whiteSpace=wrap;html=1;strokeWidth=2;rounded=1;arcSize=12;" vertex="1" parent="1">
          <mxGeometry x="365.5" y="130" width="120" height="35" as="geometry" />
        </mxCell>
        <mxCell id="Vkb-ADv6mb_PWdv9quP0-9" value="" style="edgeStyle=orthogonalEdgeStyle;rounded=0;orthogonalLoop=1;jettySize=auto;html=1;" edge="1" parent="1" source="Vkb-ADv6mb_PWdv9quP0-6" target="Vkb-ADv6mb_PWdv9quP0-8">
          <mxGeometry relative="1" as="geometry" />
        </mxCell>
        <mxCell id="Vkb-ADv6mb_PWdv9quP0-13" value="True" style="edgeLabel;html=1;align=center;verticalAlign=middle;resizable=0;points=[];" vertex="1" connectable="0" parent="Vkb-ADv6mb_PWdv9quP0-9">
          <mxGeometry x="-0.5511" y="-1" relative="1" as="geometry">
            <mxPoint as="offset" />
          </mxGeometry>
        </mxCell>
        <mxCell id="Vkb-ADv6mb_PWdv9quP0-12" value="" style="edgeStyle=orthogonalEdgeStyle;rounded=0;orthogonalLoop=1;jettySize=auto;html=1;" edge="1" parent="1" source="Vkb-ADv6mb_PWdv9quP0-6" target="Vkb-ADv6mb_PWdv9quP0-11">
          <mxGeometry relative="1" as="geometry" />
        </mxCell>
        <mxCell id="Vkb-ADv6mb_PWdv9quP0-14" value="False" style="edgeLabel;html=1;align=center;verticalAlign=middle;resizable=0;points=[];" vertex="1" connectable="0" parent="Vkb-ADv6mb_PWdv9quP0-12">
          <mxGeometry x="-0.0704" y="-5" relative="1" as="geometry">
            <mxPoint as="offset" />
          </mxGeometry>
        </mxCell>
        <mxCell id="Vkb-ADv6mb_PWdv9quP0-6" value="&lt;b&gt;While (counter &amp;lt;= userNumSecond)&lt;/b&gt;" style="rhombus;whiteSpace=wrap;html=1;strokeWidth=2;rounded=1;arcSize=12;" vertex="1" parent="1">
          <mxGeometry x="352" y="260" width="147" height="130" as="geometry" />
        </mxCell>
        <mxCell id="Vkb-ADv6mb_PWdv9quP0-10" style="edgeStyle=orthogonalEdgeStyle;rounded=0;orthogonalLoop=1;jettySize=auto;html=1;exitX=0;exitY=0.25;exitDx=0;exitDy=0;entryX=0;entryY=0.5;entryDx=0;entryDy=0;" edge="1" parent="1" source="Vkb-ADv6mb_PWdv9quP0-8" target="Vkb-ADv6mb_PWdv9quP0-6">
          <mxGeometry relative="1" as="geometry">
            <mxPoint x="290" y="250" as="targetPoint" />
          </mxGeometry>
        </mxCell>
        <mxCell id="Vkb-ADv6mb_PWdv9quP0-8" value="&lt;b&gt;counter = counter + 1&lt;/b&gt;" style="whiteSpace=wrap;html=1;strokeWidth=2;rounded=1;arcSize=12;" vertex="1" parent="1">
          <mxGeometry x="363.25" y="430" width="124.5" height="30" as="geometry" />
        </mxCell>
        <mxCell id="Vkb-ADv6mb_PWdv9quP0-11" value="&lt;b&gt;display sum&lt;/b&gt;" style="whiteSpace=wrap;html=1;strokeWidth=2;rounded=1;arcSize=12;" vertex="1" parent="1">
          <mxGeometry x="570" y="307.5" width="120" height="35" as="geometry" />
        </mxCell>
        <mxCell id="Vkb-ADv6mb_PWdv9quP0-22" style="edgeStyle=orthogonalEdgeStyle;rounded=0;orthogonalLoop=1;jettySize=auto;html=1;exitX=0.5;exitY=1;exitDx=0;exitDy=0;entryX=0.5;entryY=0;entryDx=0;entryDy=0;" edge="1" parent="1" source="Vkb-ADv6mb_PWdv9quP0-19" target="Vkb-ADv6mb_PWdv9quP0-6">
          <mxGeometry relative="1" as="geometry" />
        </mxCell>
        <mxCell id="Vkb-ADv6mb_PWdv9quP0-19" value="&lt;b&gt;sum = counter + userNumFirst&lt;/b&gt;" style="whiteSpace=wrap;html=1;strokeWidth=2;rounded=1;arcSize=12;" vertex="1" parent="1">
          <mxGeometry x="364.25" y="200" width="120" height="35" as="geometry" />
        </mxCell>
        <mxCell id="Vkb-ADv6mb_PWdv9quP0-23" value="&lt;b&gt;End&lt;/b&gt;" style="strokeWidth=2;html=1;shape=mxgraph.flowchart.start_1;whiteSpace=wrap;" vertex="1" parent="1">
          <mxGeometry x="710" y="307.5" width="100" height="40" as="geometry" />
        </mxCell>
        <mxCell id="Vkb-ADv6mb_PWdv9quP0-24" style="edgeStyle=orthogonalEdgeStyle;rounded=0;orthogonalLoop=1;jettySize=auto;html=1;exitX=1;exitY=0.5;exitDx=0;exitDy=0;entryX=0;entryY=0.5;entryDx=0;entryDy=0;entryPerimeter=0;" edge="1" parent="1" source="Vkb-ADv6mb_PWdv9quP0-11" target="Vkb-ADv6mb_PWdv9quP0-23">
          <mxGeometry relative="1" as="geometry" />
        </mxCell>
      </root>
    </mxGraphModel>
  </diagram>
</mxfile>
